<?xml version="1.0" standalone="no"?>
<!DOCTYPE svg PUBLIC "-//W3C//DTD SVG 20010904//EN"
 "http://www.w3.org/TR/2001/REC-SVG-20010904/DTD/svg10.dtd">
<svg version="1.0" xmlns="http://www.w3.org/2000/svg"
 width="1182.000000pt" height="1254.000000pt" viewBox="0 0 1182.000000 1254.000000"
 preserveAspectRatio="xMidYMid meet">

<g transform="translate(0.000000,1254.000000) scale(0.100000,-0.100000)"
fill="#000000" stroke="none">
<path d="M5565 10904 l-1650 -793 -1537 -1628 c-845 -895 -1536 -1629 -1534
-1631 2 -2 598 294 1325 657 727 364 1321 658 1321 654 0 -5 4 -2 9 6 5 8 11
9 15 3 3 -6 -3 -13 -14 -17 -20 -6 -20 -8 -20 -2934 l0 -2928 23 -12 22 -11
-22 6 c-15 3 -23 1 -23 -8 0 -7 -564 -296 -1313 -670 l-1312 -657 3335 0 3335
-1 1628 816 1627 815 0 2963 0 2964 -1771 1601 c-974 881 -1776 1601 -1782
1600 -7 0 -754 -358 -1662 -795z m653 -2864 l1311 -1175 1 -2152 0 -2153
-1720 0 -1720 0 1 2958 1 2957 396 372 c219 205 402 371 407 370 6 -1 601
-531 1323 -1177z m-2660 -2813 l-3 -2932 -2 2923 c-3 2686 -4 2922 -19 2922
-13 0 -14 3 -4 15 7 8 16 12 21 9 5 -3 8 -1240 7 -2937z"/>
</g>
</svg>
