<svg width="60" height="60" viewBox="0 0 60 60" fill="none" xmlns="http://www.w3.org/2000/svg">
<rect opacity="0.5" x="0.5" y="-0.5" width="59" height="59" transform="matrix(1 0 0 -1 0 59)" stroke="white"/>
<path d="M42.3536 29.6464C42.5488 29.8417 42.5488 30.1583 42.3536 30.3536L39.1716 33.5355C38.9763 33.7308 38.6597 33.7308 38.4645 33.5355C38.2692 33.3403 38.2692 33.0237 38.4645 32.8284L41.2929 30L38.4645 27.1716C38.2692 26.9763 38.2692 26.6597 38.4645 26.4645C38.6597 26.2692 38.9763 26.2692 39.1716 26.4645L42.3536 29.6464ZM18 29.5L42 29.5V30.5L18 30.5V29.5Z" fill="white"/>
</svg>
