<svg width="30" height="30" viewBox="0 0 30 30" fill="none" xmlns="http://www.w3.org/2000/svg">
<path d="M10.7424 24.3123C10.7424 24.9206 10.2447 25.4183 9.63644 25.4183H5.06498C4.45668 25.4183 3.95898 24.9206 3.95898 24.3123V19.2985C3.95898 18.6902 4.45668 18.1925 5.06498 18.1925H9.63644C10.2447 18.1925 10.7424 18.6902 10.7424 19.2985V24.3123Z" fill="#00A8FA"/>
<path d="M18.8713 24.3122C18.8713 24.9205 18.3736 25.4182 17.7653 25.4182H13.1939C12.5856 25.4182 12.0879 24.9205 12.0879 24.3122V16.644C12.0879 16.0357 12.5856 15.538 13.1939 15.538H17.7653C18.3736 15.538 18.8713 16.0357 18.8713 16.644V24.3122Z" fill="#00A8FA"/>
<path d="M27.0003 24.3124C27.0003 24.9206 26.5026 25.4183 25.8943 25.4183H21.3228C20.7145 25.4183 20.2168 24.9206 20.2168 24.3124V13.6948C20.2168 13.0865 20.7145 12.5888 21.3228 12.5888H25.8943C26.5026 12.5888 27.0003 13.0865 27.0003 13.6948V24.3124Z" fill="#00A8FA"/>
<path d="M26.0433 4.60217L21.0755 5.81081C20.6813 5.90622 20.5935 6.21892 20.8803 6.50567L21.9403 7.54096C22.0293 7.64241 21.9237 7.77734 21.84 7.83449C21.1725 8.29016 20.1131 8.95877 18.6489 9.72272C10.6772 13.8818 4.10589 13.6267 4.00708 13.6222C3.4796 13.5954 3.02857 14.0017 3.00129 14.5301C2.97408 15.0588 3.3805 15.5095 3.90917 15.5367C3.94802 15.5387 4.10603 15.5459 4.37169 15.5459C6.07545 15.5459 12.1956 15.2519 19.5357 11.4224C21.2724 10.5163 22.4762 9.73481 23.1791 9.24006C23.2785 9.17009 23.4517 9.04946 23.6116 9.21219L24.771 10.3716C25.0578 10.6583 25.3689 10.5701 25.4627 10.1755L26.5897 5.1461C26.6834 4.75148 26.4374 4.50676 26.0433 4.60217Z" fill="#00A8FA"/>
</svg>
