<svg width="30" height="30" viewBox="0 0 30 30" fill="none" xmlns="http://www.w3.org/2000/svg">
<path d="M24 9C24 4.03736 19.9626 0 15 0C10.0374 0 6 4.03736 6 9C6 13.9626 10.0374 18 15 18C19.9626 18 24 13.9626 24 9ZM11.5086 11.1551H13.2945C13.2945 11.7738 13.7978 12.2772 14.4166 12.2772H15.5634C16.2022 12.2772 16.7219 11.7575 16.7219 11.1188C16.7219 10.48 16.2022 9.96033 15.5634 9.96033H14.4366C12.8132 9.96033 11.4923 8.63949 11.4923 7.01599C11.4923 5.50394 12.6382 4.25501 14.1071 4.09058V2.60448H15.893V4.09392C17.3501 4.27007 18.4832 5.51346 18.4832 7.0173H16.6973C16.6973 6.37784 16.177 5.85761 15.5376 5.85761H14.4367C13.798 5.85761 13.2783 6.37724 13.2783 7.01599C13.2783 7.65475 13.798 8.17444 14.4367 8.17444H15.5635C17.187 8.17444 18.5078 9.49529 18.5078 11.1187C18.5078 12.6308 17.3619 13.8797 15.893 14.0441V15.5303H14.1071V14.0464C12.6486 13.8914 11.5086 12.654 11.5086 11.1551Z" fill="#00A8FA"/>
<path d="M20.9534 18C19.2445 19.084 17.198 19.7163 15 19.7163C12.8021 19.7163 10.7555 19.084 9.04668 18V21.7585H6V23.0001L15 30L24 23.0001V21.7585H20.9533V18H20.9534Z" fill="#00A8FA"/>
</svg>
