<svg width="30" height="30" viewBox="0 0 30 30" fill="none" xmlns="http://www.w3.org/2000/svg">
<path d="M25.701 6.35892C25.6568 6.04948 25.4282 5.79495 25.1192 5.71129L15.2158 3.02871C15.0746 2.99043 14.9255 2.99043 14.7842 3.02871L4.88078 5.71129C4.57178 5.79495 4.3432 6.04938 4.29897 6.35892C4.24153 6.76123 2.93113 16.2668 6.29221 20.9955C9.64932 25.7185 14.6018 26.9289 14.8109 26.9781C14.8731 26.9928 14.9364 27 15 27C15.0636 27 15.1269 26.9927 15.1891 26.9781C15.3983 26.9289 20.3508 25.7185 23.7078 20.9955C27.0689 16.2669 25.7585 6.76133 25.701 6.35892ZM21.3864 11.9083L14.6313 18.4879C14.4741 18.641 14.268 18.7177 14.0619 18.7177C13.8559 18.7177 13.6498 18.6411 13.4926 18.4879L9.31595 14.4198C9.16489 14.2728 9.08007 14.0733 9.08007 13.8653C9.08007 13.6573 9.165 13.4577 9.31595 13.3107L10.1452 12.503C10.4597 12.1968 10.9696 12.1967 11.284 12.503L14.0619 15.2088L19.4184 9.99137C19.5694 9.84423 19.7742 9.76161 19.9878 9.76161C20.2013 9.76161 20.4062 9.84423 20.5571 9.99137L21.3864 10.7991C21.7009 11.1054 21.7009 11.602 21.3864 11.9083Z" fill="#00A8FA"/>
</svg>
