<svg width="42" height="60" viewBox="0 0 42 60" fill="none" xmlns="http://www.w3.org/2000/svg">
<path d="M21.001 59.9989C6.99998 41.7289 0.000976563 28.7299 0.000976563 20.9989C0.000976521 18.2411 0.544157 15.5104 1.59951 12.9626C2.65485 10.4147 4.2017 8.09969 6.15173 6.14966C8.10176 4.19963 10.4168 2.65278 12.9646 1.59743C15.5125 0.542083 18.2432 -0.00109863 21.001 -0.00109863C23.7587 -0.00109863 26.4895 0.542083 29.0373 1.59743C31.5852 2.65278 33.9002 4.19963 35.8502 6.14966C37.8003 8.09969 39.3471 10.4147 40.4025 12.9626C41.4578 15.5104 42.001 18.2411 42.001 20.9989C42.001 28.7299 35.002 41.7289 21.001 59.9989ZM21.001 32.9989C24.1836 32.9989 27.2358 31.7346 29.4863 29.4842C31.7367 27.2337 33.001 24.1815 33.001 20.9989C33.001 17.8163 31.7367 14.7641 29.4863 12.5136C27.2358 10.2632 24.1836 8.9989 21.001 8.9989C17.8184 8.9989 14.7661 10.2632 12.5157 12.5136C10.2653 14.7641 9.00098 17.8163 9.00098 20.9989C9.00098 24.1815 10.2653 27.2337 12.5157 29.4842C14.7661 31.7346 17.8184 32.9989 21.001 32.9989Z" fill="#FC0101"/>
</svg>
